
<svg xmlns="http://www.w3.org/2000/svg" viewBox="0 0 512 512" fill="none">
  <path d="M256 64c53 0 96 43 96 96s-43 96-96 96-96-43-96-96 43-96 96-96zm0 32c-35.3 0-64 28.7-64 64s28.7 64 64 64 64-28.7 64-64-28.7-64-64-64z" fill="#4D7C0F"/>
  <path d="M100 352h312c8.8 0 16 7.2 16 16v32c0 8.8-7.2 16-16 16H100c-8.8 0-16-7.2-16-16v-32c0-8.8 7.2-16 16-16z" fill="#8B5A2B"/>
  <path d="M176 240c0-44.2 35.8-80 80-80s80 35.8 80 80v48c0 17.7-14.3 32-32 32h-96c-17.7 0-32-14.3-32-32v-48z" fill="#4D7C0F"/>
  <path d="M368 256a112 112 0 0 1-224 0c0-34.3 15.5-65 40-85.6V112c0-8.8 7.2-16 16-16h112c8.8 0 16 7.2 16 16v58.4c24.5 20.6 40 51.3 40 85.6z" fill="#F59E0B"/>
  <path d="M256 400c-79.5 0-144-64.5-144-144V48c0-8.8 7.2-16 16-16h256c8.8 0 16 7.2 16 16v208c0 79.5-64.5 144-144 144z" stroke="#4D7C0F" stroke-width="24" stroke-linecap="round" stroke-linejoin="round"/>
</svg>
